<mxfile host="app.diagrams.net" agent="Mozilla/5.0 (Windows NT 10.0; Win64; x64) AppleWebKit/537.36 (KHTML, like Gecko) Chrome/140.0.0.0 Safari/537.36" version="28.2.3">
  <diagram name="Trang-1" id="cdQ67rRbVhdPvB3lVH2a">
    <mxGraphModel dx="1042" dy="562" grid="1" gridSize="10" guides="1" tooltips="1" connect="1" arrows="1" fold="1" page="1" pageScale="1" pageWidth="827" pageHeight="1169" math="0" shadow="0">
      <root>
        <mxCell id="0" />
        <mxCell id="1" parent="0" />
        <mxCell id="zdJzUYpvgkgMn2NMgIf4-2" style="edgeStyle=orthogonalEdgeStyle;rounded=0;orthogonalLoop=1;jettySize=auto;html=1;" edge="1" parent="1" source="zdJzUYpvgkgMn2NMgIf4-1" target="zdJzUYpvgkgMn2NMgIf4-3">
          <mxGeometry relative="1" as="geometry">
            <mxPoint x="340" y="180" as="targetPoint" />
          </mxGeometry>
        </mxCell>
        <mxCell id="zdJzUYpvgkgMn2NMgIf4-1" value="START" style="ellipse;whiteSpace=wrap;html=1;" vertex="1" parent="1">
          <mxGeometry x="280" y="30" width="120" height="80" as="geometry" />
        </mxCell>
        <mxCell id="zdJzUYpvgkgMn2NMgIf4-4" style="edgeStyle=orthogonalEdgeStyle;rounded=0;orthogonalLoop=1;jettySize=auto;html=1;" edge="1" parent="1" source="zdJzUYpvgkgMn2NMgIf4-3" target="zdJzUYpvgkgMn2NMgIf4-5">
          <mxGeometry relative="1" as="geometry">
            <mxPoint x="340" y="270" as="targetPoint" />
          </mxGeometry>
        </mxCell>
        <mxCell id="zdJzUYpvgkgMn2NMgIf4-3" value="A,B,C" style="shape=parallelogram;perimeter=parallelogramPerimeter;whiteSpace=wrap;html=1;fixedSize=1;" vertex="1" parent="1">
          <mxGeometry x="280" y="150" width="120" height="60" as="geometry" />
        </mxCell>
        <mxCell id="zdJzUYpvgkgMn2NMgIf4-6" style="edgeStyle=orthogonalEdgeStyle;rounded=0;orthogonalLoop=1;jettySize=auto;html=1;" edge="1" parent="1" source="zdJzUYpvgkgMn2NMgIf4-5" target="zdJzUYpvgkgMn2NMgIf4-7">
          <mxGeometry relative="1" as="geometry">
            <mxPoint x="340" y="380" as="targetPoint" />
          </mxGeometry>
        </mxCell>
        <mxCell id="zdJzUYpvgkgMn2NMgIf4-5" value="MAX=A" style="shape=parallelogram;perimeter=parallelogramPerimeter;whiteSpace=wrap;html=1;fixedSize=1;" vertex="1" parent="1">
          <mxGeometry x="280" y="240" width="120" height="60" as="geometry" />
        </mxCell>
        <mxCell id="zdJzUYpvgkgMn2NMgIf4-8" style="edgeStyle=orthogonalEdgeStyle;rounded=0;orthogonalLoop=1;jettySize=auto;html=1;" edge="1" parent="1" source="zdJzUYpvgkgMn2NMgIf4-7" target="zdJzUYpvgkgMn2NMgIf4-9">
          <mxGeometry relative="1" as="geometry">
            <mxPoint x="450" y="390" as="targetPoint" />
          </mxGeometry>
        </mxCell>
        <mxCell id="zdJzUYpvgkgMn2NMgIf4-11" value="YES" style="edgeLabel;html=1;align=center;verticalAlign=middle;resizable=0;points=[];" vertex="1" connectable="0" parent="zdJzUYpvgkgMn2NMgIf4-8">
          <mxGeometry x="-0.0171" y="3" relative="1" as="geometry">
            <mxPoint as="offset" />
          </mxGeometry>
        </mxCell>
        <mxCell id="zdJzUYpvgkgMn2NMgIf4-10" style="edgeStyle=orthogonalEdgeStyle;rounded=0;orthogonalLoop=1;jettySize=auto;html=1;" edge="1" parent="1" target="zdJzUYpvgkgMn2NMgIf4-14">
          <mxGeometry relative="1" as="geometry">
            <mxPoint x="230" y="389.5" as="targetPoint" />
            <mxPoint x="310" y="389.5" as="sourcePoint" />
            <Array as="points">
              <mxPoint x="200" y="390" />
            </Array>
          </mxGeometry>
        </mxCell>
        <mxCell id="zdJzUYpvgkgMn2NMgIf4-12" value="NO" style="edgeLabel;html=1;align=center;verticalAlign=middle;resizable=0;points=[];" vertex="1" connectable="0" parent="zdJzUYpvgkgMn2NMgIf4-10">
          <mxGeometry x="-0.0659" y="1" relative="1" as="geometry">
            <mxPoint x="1" as="offset" />
          </mxGeometry>
        </mxCell>
        <mxCell id="zdJzUYpvgkgMn2NMgIf4-7" value="MAX=&amp;lt;B" style="rhombus;whiteSpace=wrap;html=1;" vertex="1" parent="1">
          <mxGeometry x="300" y="350" width="80" height="80" as="geometry" />
        </mxCell>
        <mxCell id="zdJzUYpvgkgMn2NMgIf4-15" style="edgeStyle=orthogonalEdgeStyle;rounded=0;orthogonalLoop=1;jettySize=auto;html=1;entryX=1;entryY=0.5;entryDx=0;entryDy=0;" edge="1" parent="1" source="zdJzUYpvgkgMn2NMgIf4-9" target="zdJzUYpvgkgMn2NMgIf4-14">
          <mxGeometry relative="1" as="geometry">
            <mxPoint x="510" y="520" as="targetPoint" />
            <Array as="points">
              <mxPoint x="510" y="510" />
            </Array>
          </mxGeometry>
        </mxCell>
        <mxCell id="zdJzUYpvgkgMn2NMgIf4-9" value="MAX = B" style="rounded=0;whiteSpace=wrap;html=1;" vertex="1" parent="1">
          <mxGeometry x="450" y="360" width="120" height="60" as="geometry" />
        </mxCell>
        <mxCell id="zdJzUYpvgkgMn2NMgIf4-16" style="edgeStyle=orthogonalEdgeStyle;rounded=0;orthogonalLoop=1;jettySize=auto;html=1;" edge="1" parent="1" source="zdJzUYpvgkgMn2NMgIf4-14" target="zdJzUYpvgkgMn2NMgIf4-17">
          <mxGeometry relative="1" as="geometry">
            <mxPoint x="70" y="640.7999877929688" as="targetPoint" />
          </mxGeometry>
        </mxCell>
        <mxCell id="zdJzUYpvgkgMn2NMgIf4-20" value="NO" style="edgeLabel;html=1;align=center;verticalAlign=middle;resizable=0;points=[];" vertex="1" connectable="0" parent="zdJzUYpvgkgMn2NMgIf4-16">
          <mxGeometry x="-0.501" y="1" relative="1" as="geometry">
            <mxPoint as="offset" />
          </mxGeometry>
        </mxCell>
        <mxCell id="zdJzUYpvgkgMn2NMgIf4-18" style="edgeStyle=orthogonalEdgeStyle;rounded=0;orthogonalLoop=1;jettySize=auto;html=1;entryX=1;entryY=0.75;entryDx=0;entryDy=0;" edge="1" parent="1" source="zdJzUYpvgkgMn2NMgIf4-14" target="zdJzUYpvgkgMn2NMgIf4-17">
          <mxGeometry relative="1" as="geometry">
            <Array as="points">
              <mxPoint x="200" y="580" />
              <mxPoint x="150" y="580" />
              <mxPoint x="150" y="656" />
            </Array>
          </mxGeometry>
        </mxCell>
        <mxCell id="zdJzUYpvgkgMn2NMgIf4-19" value="YES" style="edgeLabel;html=1;align=center;verticalAlign=middle;resizable=0;points=[];" vertex="1" connectable="0" parent="zdJzUYpvgkgMn2NMgIf4-18">
          <mxGeometry x="-0.3902" y="4" relative="1" as="geometry">
            <mxPoint as="offset" />
          </mxGeometry>
        </mxCell>
        <mxCell id="zdJzUYpvgkgMn2NMgIf4-14" value="MAX=&amp;lt;C" style="rhombus;whiteSpace=wrap;html=1;" vertex="1" parent="1">
          <mxGeometry x="160" y="470" width="80" height="80" as="geometry" />
        </mxCell>
        <mxCell id="zdJzUYpvgkgMn2NMgIf4-21" style="edgeStyle=orthogonalEdgeStyle;rounded=0;orthogonalLoop=1;jettySize=auto;html=1;entryX=0.56;entryY=-0.017;entryDx=0;entryDy=0;entryPerimeter=0;" edge="1" parent="1" source="zdJzUYpvgkgMn2NMgIf4-17" target="zdJzUYpvgkgMn2NMgIf4-23">
          <mxGeometry relative="1" as="geometry">
            <mxPoint x="441" y="705.0017162471402" as="targetPoint" />
            <Array as="points">
              <mxPoint x="70" y="700" />
              <mxPoint x="441" y="700" />
              <mxPoint x="441" y="759" />
            </Array>
          </mxGeometry>
        </mxCell>
        <mxCell id="zdJzUYpvgkgMn2NMgIf4-17" value="MAX" style="rounded=0;whiteSpace=wrap;html=1;" vertex="1" parent="1">
          <mxGeometry x="10" y="610.7999877929688" width="120" height="60" as="geometry" />
        </mxCell>
        <mxCell id="zdJzUYpvgkgMn2NMgIf4-23" value="END" style="ellipse;whiteSpace=wrap;html=1;" vertex="1" parent="1">
          <mxGeometry x="380" y="760" width="120" height="80" as="geometry" />
        </mxCell>
      </root>
    </mxGraphModel>
  </diagram>
</mxfile>
